<mxfile host="app.diagrams.net" modified="2021-04-06T11:56:34.576Z" agent="5.0 (Windows)" etag="Vi-pXaxbaIoJsF2Oa5bg" version="14.5.7" type="github">
  <diagram id="L8xZ-ZTNfgY7-FBcESVa" name="第 1 页">
    <mxGraphModel dx="1254" dy="763" grid="1" gridSize="10" guides="1" tooltips="1" connect="1" arrows="1" fold="1" page="1" pageScale="1" pageWidth="827" pageHeight="1169" math="0" shadow="0">
      <root>
        <mxCell id="0" />
        <mxCell id="1" parent="0" />
        <mxCell id="RJPolvRP-EymufQdVbcv-20" value="普通读" style="rounded=1;whiteSpace=wrap;html=1;glass=0;sketch=1;fillColor=#d5e8d4;" vertex="1" parent="1">
          <mxGeometry x="354" y="170" width="120" height="60" as="geometry" />
        </mxCell>
        <mxCell id="RJPolvRP-EymufQdVbcv-21" value="普通写" style="rounded=1;whiteSpace=wrap;html=1;glass=0;sketch=1;fillColor=#d5e8d4;" vertex="1" parent="1">
          <mxGeometry x="354" y="285" width="120" height="60" as="geometry" />
        </mxCell>
        <mxCell id="RJPolvRP-EymufQdVbcv-22" value="StoreStore屏障" style="rounded=1;whiteSpace=wrap;html=1;glass=0;sketch=1;fillColor=#d5e8d4;" vertex="1" parent="1">
          <mxGeometry x="354" y="400" width="120" height="60" as="geometry" />
        </mxCell>
        <mxCell id="RJPolvRP-EymufQdVbcv-23" value="volatile写" style="rounded=1;whiteSpace=wrap;html=1;glass=0;sketch=1;fillColor=#d5e8d4;" vertex="1" parent="1">
          <mxGeometry x="354" y="515" width="120" height="60" as="geometry" />
        </mxCell>
        <mxCell id="RJPolvRP-EymufQdVbcv-24" value="StoreLoad屏障" style="rounded=1;whiteSpace=wrap;html=1;glass=0;sketch=1;fillColor=#d5e8d4;" vertex="1" parent="1">
          <mxGeometry x="354" y="630" width="120" height="60" as="geometry" />
        </mxCell>
        <mxCell id="RJPolvRP-EymufQdVbcv-25" value="" style="shape=flexArrow;html=1;sketch=1;fontSize=12;fillColor=#d5e8d4;glass=0;" edge="1" parent="1">
          <mxGeometry width="50" height="50" relative="1" as="geometry">
            <mxPoint x="270" y="170" as="sourcePoint" />
            <mxPoint x="270" y="670" as="targetPoint" />
          </mxGeometry>
        </mxCell>
        <mxCell id="RJPolvRP-EymufQdVbcv-26" value="时间" style="text;html=1;strokeColor=none;fillColor=none;align=center;verticalAlign=middle;whiteSpace=wrap;rounded=0;glass=0;sketch=1;fontSize=15;fontStyle=1" vertex="1" parent="1">
          <mxGeometry x="230" y="360" width="20" height="40" as="geometry" />
        </mxCell>
        <mxCell id="RJPolvRP-EymufQdVbcv-27" value="禁止上面的普通写和下面的volatile写重排序" style="whiteSpace=wrap;html=1;shape=mxgraph.basic.cloud_callout;rounded=1;glass=0;sketch=1;fillColor=#d5e8d4;fontSize=15;" vertex="1" parent="1">
          <mxGeometry x="480" y="280" width="230" height="130" as="geometry" />
        </mxCell>
        <mxCell id="RJPolvRP-EymufQdVbcv-28" value="禁止上面的volatile写和下面有可能的volatile读/写重排序" style="whiteSpace=wrap;html=1;shape=mxgraph.basic.cloud_callout;rounded=1;glass=0;sketch=1;fillColor=#d5e8d4;fontSize=15;" vertex="1" parent="1">
          <mxGeometry x="480" y="540" width="230" height="130" as="geometry" />
        </mxCell>
        <mxCell id="RJPolvRP-EymufQdVbcv-29" value="volatile读" style="rounded=1;whiteSpace=wrap;html=1;glass=0;sketch=1;fillColor=#d5e8d4;" vertex="1" parent="1">
          <mxGeometry x="324" y="790" width="120" height="60" as="geometry" />
        </mxCell>
        <mxCell id="RJPolvRP-EymufQdVbcv-30" value="LoadLoad屏障" style="rounded=1;whiteSpace=wrap;html=1;glass=0;sketch=1;fillColor=#d5e8d4;" vertex="1" parent="1">
          <mxGeometry x="324" y="905" width="120" height="60" as="geometry" />
        </mxCell>
        <mxCell id="RJPolvRP-EymufQdVbcv-31" value="LoadStore屏障" style="rounded=1;whiteSpace=wrap;html=1;glass=0;sketch=1;fillColor=#d5e8d4;" vertex="1" parent="1">
          <mxGeometry x="324" y="1020" width="120" height="60" as="geometry" />
        </mxCell>
        <mxCell id="RJPolvRP-EymufQdVbcv-32" value="普通读" style="rounded=1;whiteSpace=wrap;html=1;glass=0;sketch=1;fillColor=#d5e8d4;" vertex="1" parent="1">
          <mxGeometry x="324" y="1135" width="120" height="60" as="geometry" />
        </mxCell>
        <mxCell id="RJPolvRP-EymufQdVbcv-33" value="普通写" style="rounded=1;whiteSpace=wrap;html=1;glass=0;sketch=1;fillColor=#d5e8d4;" vertex="1" parent="1">
          <mxGeometry x="324" y="1250" width="120" height="60" as="geometry" />
        </mxCell>
        <mxCell id="RJPolvRP-EymufQdVbcv-34" value="" style="shape=flexArrow;html=1;sketch=1;fontSize=12;fillColor=#d5e8d4;glass=0;" edge="1" parent="1">
          <mxGeometry width="50" height="50" relative="1" as="geometry">
            <mxPoint x="240" y="790" as="sourcePoint" />
            <mxPoint x="240" y="1290" as="targetPoint" />
          </mxGeometry>
        </mxCell>
        <mxCell id="RJPolvRP-EymufQdVbcv-35" value="时间" style="text;html=1;strokeColor=none;fillColor=none;align=center;verticalAlign=middle;whiteSpace=wrap;rounded=0;glass=0;sketch=1;fontSize=15;fontStyle=1" vertex="1" parent="1">
          <mxGeometry x="200" y="980" width="20" height="40" as="geometry" />
        </mxCell>
        <mxCell id="RJPolvRP-EymufQdVbcv-36" value="&lt;div&gt;禁止下面的所有的普通读操作和上面的volatile读重排序&lt;/div&gt;&lt;div&gt;&lt;br&gt;&lt;/div&gt;" style="whiteSpace=wrap;html=1;shape=mxgraph.basic.cloud_callout;rounded=1;glass=0;sketch=1;fillColor=#d5e8d4;fontSize=15;" vertex="1" parent="1">
          <mxGeometry x="450" y="800" width="230" height="130" as="geometry" />
        </mxCell>
        <mxCell id="RJPolvRP-EymufQdVbcv-37" value="&lt;div&gt;禁止下面所有的普通写和上面的volatile读重排序&lt;/div&gt;&lt;div&gt;&lt;br&gt;&lt;/div&gt;" style="whiteSpace=wrap;html=1;shape=mxgraph.basic.cloud_callout;rounded=1;glass=0;sketch=1;fillColor=#d5e8d4;fontSize=15;" vertex="1" parent="1">
          <mxGeometry x="450" y="935" width="230" height="130" as="geometry" />
        </mxCell>
      </root>
    </mxGraphModel>
  </diagram>
</mxfile>
